<?xml version="1.0" encoding="UTF-8"?>
<svg xmlns="http://www.w3.org/2000/svg" xmlns:xlink="http://www.w3.org/1999/xlink" width="960pt" height="540.000001pt" viewBox="0 0 960 540.000001" version="1.2">
<defs>
<clipPath id="clip1">
  <path d="M 0.886719 0 L 959.113281 0 L 959.113281 539 L 0.886719 539 Z M 0.886719 0 "/>
</clipPath>
<clipPath id="clip2">
  <path d="M 372.199219 161.699219 L 587.800781 161.699219 L 587.800781 377.300781 L 372.199219 377.300781 Z M 372.199219 161.699219 "/>
</clipPath>
</defs>
<g id="surface1">
<g clip-path="url(#clip1)" clip-rule="nonzero">
<path style=" stroke:none;fill-rule:nonzero;fill:rgb(100%,100%,100%);fill-opacity:1;" d="M 0.886719 0 L 959.113281 0 L 959.113281 546.488281 L 0.886719 546.488281 Z M 0.886719 0 "/>
<path style=" stroke:none;fill-rule:nonzero;fill:rgb(100%,100%,100%);fill-opacity:1;" d="M 0.886719 0 L 959.113281 0 L 959.113281 539 L 0.886719 539 Z M 0.886719 0 "/>
<path style=" stroke:none;fill-rule:nonzero;fill:rgb(100%,100%,100%);fill-opacity:1;" d="M 0.886719 0 L 959.113281 0 L 959.113281 539 L 0.886719 539 Z M 0.886719 0 "/>
</g>
<g clip-path="url(#clip2)" clip-rule="nonzero">
<path style=" stroke:none;fill-rule:nonzero;fill:rgb(85.099792%,85.099792%,85.099792%);fill-opacity:1;" d="M 557.855469 377.300781 L 402.144531 377.300781 C 385.609375 377.300781 372.199219 363.890625 372.199219 347.355469 L 372.199219 191.644531 C 372.199219 175.109375 385.609375 161.699219 402.144531 161.699219 L 557.855469 161.699219 C 574.390625 161.699219 587.800781 175.109375 587.800781 191.644531 L 587.800781 347.355469 C 587.800781 363.890625 574.390625 377.300781 557.855469 377.300781 Z M 557.855469 377.300781 "/>
</g>
<path style=" stroke:none;fill-rule:nonzero;fill:rgb(100%,100%,100%);fill-opacity:1;" d="M 536.894531 257.523438 L 530.90625 257.523438 C 525.945312 257.523438 521.921875 253.5 521.921875 248.539062 L 521.921875 245.546875 C 521.921875 222.390625 503.152344 203.621094 480 203.621094 L 456.042969 203.621094 C 432.890625 203.621094 414.121094 222.390625 414.121094 245.546875 L 414.121094 293.457031 C 414.121094 316.609375 432.890625 335.378906 456.042969 335.378906 L 503.957031 335.378906 C 527.109375 335.378906 545.878906 316.609375 545.878906 293.457031 L 545.878906 266.507812 C 545.878906 261.546875 541.851562 257.523438 536.894531 257.523438 Z M 456.042969 239.554688 L 485.988281 239.554688 C 489.300781 239.554688 491.976562 242.238281 491.976562 245.546875 C 491.976562 248.851562 489.300781 251.535156 485.988281 251.535156 L 456.042969 251.535156 C 452.734375 251.535156 450.054688 248.851562 450.054688 245.546875 C 450.054688 242.238281 452.734375 239.554688 456.042969 239.554688 Z M 503.957031 299.445312 L 456.042969 299.445312 C 452.734375 299.445312 450.054688 296.761719 450.054688 293.457031 C 450.054688 290.152344 452.734375 287.46875 456.042969 287.46875 L 503.957031 287.46875 C 507.265625 287.46875 509.945312 290.152344 509.945312 293.457031 C 509.945312 296.761719 507.265625 299.445312 503.957031 299.445312 Z M 503.957031 299.445312 "/>
</g>
</svg>
